<svg xmlns="http://www.w3.org/2000/svg" viewBox="0 -100 512 640" x="0px" y="0px"><title>shopping, cart, retail, business, sale_1</title><path d="M497,431H465.53a55,55,0,0,0-96.9,0H224.45a55,55,0,0,0-96.9,0H116.33a25,25,0,0,1,0-50H447a15,15,0,0,0,14.63-11.68l50-220A15,15,0,0,0,497,131H455.51c-3.16,82.7-71.41,149-154.87,149S148.93,213.7,145.77,131H108.54L90.83,12.78A15,15,0,0,0,76,0H15a15,15,0,0,0,0,30H63.08l17.7,118.12a.34.34,0,0,0,0,.1l30.41,203A55,55,0,0,0,116.33,461h4.83a55,55,0,0,0,109.68,0h131.4a55,55,0,0,0,109.68,0H497a15,15,0,0,0,0-30Z"/><path d="M300.64,250a125,125,0,1,0-125-125A125.15,125.15,0,0,0,300.64,250Zm-61-137.64a15,15,0,0,1,21.19-.83l24.93,23L340.46,84a15,15,0,0,1,20.36,22l-64.89,60a15,15,0,0,1-20.37,0l-35.1-32.46A15,15,0,0,1,239.63,112.36Z"/><text x="0" y="527" font-size="5px" font-weight="bold" font-family="'Helvetica Neue', Helvetica, Arial-Unicode, Arial, Sans-serif">Created by Yogi Aprelliyanto</text><text  font-weight="bold" font-family="'Helvetica Neue', Helvetica, Arial-Unicode, Arial, Sans-serif">from the Noun Project</text></svg>